<?xml version="1.0" encoding="utf-8"?>
<!-- Generator: Adobe Illustrator 21.1.0, SVG Export Plug-In . SVG Version: 6.00 Build 0)  -->
<svg version="1.1" id="Logo_x27_s" xmlns="http://www.w3.org/2000/svg" xmlns:xlink="http://www.w3.org/1999/xlink" x="0px" y="0px"
	 viewBox="0 0 950 200" style="enable-background:new 0 0 950 200;" xml:space="preserve">
<style type="text/css">
	.st0{fill:url(#SVGID_1_);}
	.st1{fill:url(#SVGID_2_);}
	.st2{fill:url(#SVGID_3_);}
	.st3{fill:url(#SVGID_4_);}
	.st4{fill:url(#SVGID_5_);}
	.st5{fill:url(#SVGID_6_);}
	.st6{fill:url(#SVGID_7_);}
	.st7{fill:url(#SVGID_8_);}
	.st8{fill:url(#SVGID_9_);}
	.st9{fill:url(#SVGID_10_);}
	.st10{fill:url(#SVGID_11_);}
	.st11{fill:url(#SVGID_12_);}
	.st12{fill:url(#SVGID_13_);}
	.st13{fill:url(#SVGID_14_);}
	.st14{fill:url(#SVGID_15_);}
	.st15{fill:url(#SVGID_16_);}
	.st16{fill:url(#SVGID_17_);}
	.st17{fill:url(#SVGID_18_);}
</style>
<g>
	<g>
		<radialGradient id="SVGID_1_" cx="470.0274" cy="88.5905" r="467.9862" gradientUnits="userSpaceOnUse">
			<stop  offset="0" style="stop-color:#F58220"/>
			<stop  offset="1" style="stop-color:#F26522"/>
		</radialGradient>
		<path class="st0" d="M11.8,80.3c2.9,1.3,5.9,2.6,9,3.8c3.4-22.4,11.7-42.4,25.4-60.4c-0.4,0-0.5,0-0.6,0.1
			C26.4,37.3,14.9,55.6,11.3,78.9C11.2,79.3,11.5,80.1,11.8,80.3z"/>
		<radialGradient id="SVGID_2_" cx="470.0274" cy="88.5905" r="467.9862" gradientUnits="userSpaceOnUse">
			<stop  offset="0" style="stop-color:#F58220"/>
			<stop  offset="1" style="stop-color:#F26522"/>
		</radialGradient>
		<path class="st1" d="M82.6,154.5c10.1-0.8,19.9-3,29.5-6.3c2.1-0.7,4.2-1.6,6.3-2.4c-2.2-8.4-5.3-16.2-9.2-23.6
			c-31.9,11-62.9,9-93.7-4.7c0.1,0.5,0.2,0.7,0.3,0.9c4.5,11.9,11.4,22.1,20.8,30.6c0.6,0.5,1.4,0.8,2.1,1
			C52.9,154.4,67.6,155.7,82.6,154.5z"/>
		<radialGradient id="SVGID_3_" cx="470.0274" cy="88.5905" r="467.9862" gradientUnits="userSpaceOnUse">
			<stop  offset="0" style="stop-color:#F58220"/>
			<stop  offset="1" style="stop-color:#F26522"/>
		</radialGradient>
		<path class="st2" d="M86.1,120.1c6.4-1.2,12.7-2.9,19.1-4.4c0-0.3,0-0.5,0.1-0.8c-2.3-3.3-4.6-6.8-7.1-10
			c-2.5-3.2-5.2-6.2-7.7-9.3c-0.9-1.1-1.8-1.3-3.2-1c-6.6,1.1-13.3,2.5-20,3c-18.8,1.3-37.1-1.2-54.6-8.6c-0.6-0.3-1.3-0.5-2.6-0.9
			c0.7,6.3,1.4,12.1,2.1,17.8c0.1,0.6,0.8,1.4,1.4,1.7c15.6,8.3,32.3,12.9,50,13.7C71.1,121.7,78.6,121.4,86.1,120.1z"/>
		<radialGradient id="SVGID_4_" cx="470.0274" cy="88.5905" r="467.9862" gradientUnits="userSpaceOnUse">
			<stop  offset="0" style="stop-color:#F58220"/>
			<stop  offset="1" style="stop-color:#F26522"/>
		</radialGradient>
		<path class="st3" d="M68.3,68.2c-2.9,7-5,14.2-6.2,21.9c8.4-0.1,16.5-1.4,24.4-3.2c0.5-0.1,1-1,1.3-1.6c2.1-5.5,3.9-11.1,6.3-16.4
			c8.1-17.9,19.6-33.1,35.1-45.2c0.8-0.7,1.7-1.4,2.6-2.1c-5-3.1-10.1-5.4-15.4-7.3c-1.2-0.4-2.1-0.4-3.2,0.3
			C92.6,27.8,77.6,45.6,68.3,68.2z"/>
		<radialGradient id="SVGID_5_" cx="470.0274" cy="88.5905" r="467.9862" gradientUnits="userSpaceOnUse">
			<stop  offset="0" style="stop-color:#F58220"/>
			<stop  offset="1" style="stop-color:#F26522"/>
		</radialGradient>
		<path class="st4" d="M28.4,85.1c-0.1,0.4,0.5,1.3,0.9,1.4c8.1,2.1,16.4,3.4,24.9,3.6c6-33.1,23-59.1,50.1-78.9
			c-12.8-2.2-25-1.4-36.9,2.2c-1.1,0.3-2.3,1-3.1,1.8c-8.6,8.1-15.7,17.3-21.5,27.6C35.3,56,30.6,70.2,28.4,85.1z"/>
		<radialGradient id="SVGID_6_" cx="470.0274" cy="88.5905" r="467.9862" gradientUnits="userSpaceOnUse">
			<stop  offset="0" style="stop-color:#F58220"/>
			<stop  offset="1" style="stop-color:#F26522"/>
		</radialGradient>
		<path class="st5" d="M163.8,90.4c-7-18.5-18.1-34.2-32.8-47.3c-2-1.8-4.1-3.4-6.3-5.2c-6.4,6.4-11.8,13.2-16.3,20.6
			c25.6,21.8,39.7,49.4,43.2,82.8c0.4-0.3,0.6-0.5,0.8-0.7c7.7-9.5,13-20.1,15.8-32c0.2-1,0.5-2.2,0.2-3.1
			C166.9,100.4,165.6,95.3,163.8,90.4z"/>
		<radialGradient id="SVGID_7_" cx="470.0274" cy="88.5905" r="467.9862" gradientUnits="userSpaceOnUse">
			<stop  offset="0" style="stop-color:#F58220"/>
			<stop  offset="1" style="stop-color:#F26522"/>
		</radialGradient>
		<path class="st6" d="M120.1,153.3c-10.6,4.2-21.2,7-32.1,8.4c-10.9,1.3-21.8,1.3-32.8,0c0.5,0.4,1.1,0.7,1.6,0.9
			c8.9,4.1,18.2,6.5,28,7.2c12.2,0.9,23.9-1,35.3-5.4c1-0.4,1.4-0.9,1.2-1.9C120.9,159.5,120.5,156.5,120.1,153.3z"/>
		<radialGradient id="SVGID_8_" cx="470.0274" cy="88.5905" r="467.9862" gradientUnits="userSpaceOnUse">
			<stop  offset="0" style="stop-color:#F58220"/>
			<stop  offset="1" style="stop-color:#F26522"/>
		</radialGradient>
		<path class="st7" d="M138.5,26.4c-1.3,1-2.7,1.9-4,3c-1.4,1-2.7,2.1-4.1,3.3c17.6,14,30.7,31.2,39.4,52
			C172,68.3,154.2,35.2,138.5,26.4z"/>
		<radialGradient id="SVGID_9_" cx="470.0274" cy="88.5905" r="467.9862" gradientUnits="userSpaceOnUse">
			<stop  offset="0" style="stop-color:#F58220"/>
			<stop  offset="1" style="stop-color:#F26522"/>
		</radialGradient>
		<path class="st8" d="M113.6,73.9c-2.8-3-5.9-5.7-9.1-8.7c-4.1,7.6-7.1,15.2-9.5,23.1c-0.1,0.5,0.3,1.3,0.7,1.7
			c1.5,1.9,3.2,3.6,4.8,5.5c10.1,12,17.8,25.4,22.9,40.3c2.7,7.9,4.5,15.9,5.4,24.2c0.3,0,0.5,0,0.6-0.1c4.7-3.4,9.5-6.7,14.2-10.2
			c0.4-0.3,0.7-1.2,0.6-1.8c-0.5-5.6-0.8-11.3-1.8-16.8C138.3,109.3,128.8,90.1,113.6,73.9z"/>
	</g>
	<g>
		<radialGradient id="SVGID_10_" cx="470.0274" cy="88.5905" r="467.9862" gradientUnits="userSpaceOnUse">
			<stop  offset="0" style="stop-color:#F58220"/>
			<stop  offset="1" style="stop-color:#F26522"/>
		</radialGradient>
		<path class="st9" d="M268.2,61L268.2,61c-1.2,2-28.2,54.2-28.2,54.2l-28.2-54.3C202.6,43.7,190,40.2,180,40.2l48.3,91.7
			c1.2,2.3,4.4,8.2,11.6,8.3c5.5,0.1,9.7-4,11.8-7.9l48.1-92.1C289.8,40.2,277,45,268.2,61z"/>
		<radialGradient id="SVGID_11_" cx="470.0274" cy="88.5905" r="467.9862" gradientUnits="userSpaceOnUse">
			<stop  offset="0" style="stop-color:#F58220"/>
			<stop  offset="1" style="stop-color:#F26522"/>
		</radialGradient>
		<path class="st10" d="M340,40.2c-27.6,0-50,22.4-50,50c0,27.6,22.4,50,50,50s50-22.4,50-50C390,62.6,367.6,40.2,340,40.2z
			 M340,120.2c-16.6,0-30-13.4-30-30s13.4-30,30-30s30,13.4,30,30S356.6,120.2,340,120.2z"/>
		<radialGradient id="SVGID_12_" cx="470.0274" cy="88.5905" r="467.9862" gradientUnits="userSpaceOnUse">
			<stop  offset="0" style="stop-color:#F58220"/>
			<stop  offset="1" style="stop-color:#F26522"/>
		</radialGradient>
		<path class="st11" d="M400,30.2v110c11,0,20-9,20-20v-110C409,10.2,400,19.1,400,30.2z"/>
		<radialGradient id="SVGID_13_" cx="470.0274" cy="88.5905" r="467.9862" gradientUnits="userSpaceOnUse">
			<stop  offset="0" style="stop-color:#F58220"/>
			<stop  offset="1" style="stop-color:#F26522"/>
		</radialGradient>
		<path class="st12" d="M440,30.2v110c11,0,20-9,20-20v-110C449,10.2,440,19.1,440,30.2z"/>
		<radialGradient id="SVGID_14_" cx="470.0274" cy="88.5905" r="467.9862" gradientUnits="userSpaceOnUse">
			<stop  offset="0" style="stop-color:#F58220"/>
			<stop  offset="1" style="stop-color:#F26522"/>
		</radialGradient>
		<path class="st13" d="M520,40.2c-27.6,0-50,22.3-50,49.9s22.4,49.9,50,49.9h10h10h20c0-11-9-20-20-20h-10h-10
			c-13.1,0-24.2-8-28.3-20H520h28.3H569c0.7-3,1-6.5,1-9.9C570,62.5,547.6,40.2,520,40.2z M491.7,80c4.1-11,15.2-20,28.3-20
			s24.2,9,28.3,20H491.7z"/>
		<radialGradient id="SVGID_15_" cx="470.0274" cy="88.5905" r="467.9862" gradientUnits="userSpaceOnUse">
			<stop  offset="0" style="stop-color:#F58220"/>
			<stop  offset="1" style="stop-color:#F26522"/>
		</radialGradient>
		<path class="st14" d="M648.2,61L648.2,61c-1.1,2-28.2,54.2-28.2,54.2l-28.2-54.3C582.6,43.7,570,40.2,560,40.2
			c0,0,49.1,93.2,49.8,94.2l-28.4,53.4c9.1,4.9,20.8,0.9,26-8.8l72.5-138.7C669.8,40.2,657,45,648.2,61z"/>
		<radialGradient id="SVGID_16_" cx="470.0274" cy="88.5905" r="467.9862" gradientUnits="userSpaceOnUse">
			<stop  offset="0" style="stop-color:#F58220"/>
			<stop  offset="1" style="stop-color:#F26522"/>
		</radialGradient>
		<path class="st15" d="M740,40.2c-11.3,0-21.6,3.7-30,10v-20v-20c-11,0-20,9-20,20v60c0,27.6,22.4,50,50,50s50-22.4,50-50
			C790,62.6,767.6,40.2,740,40.2z M740,120.2c-16.6,0-30-13.4-30-30s13.4-30,30-30s30,13.4,30,30S756.6,120.2,740,120.2z"/>
		<radialGradient id="SVGID_17_" cx="470.0274" cy="88.5905" r="467.9862" gradientUnits="userSpaceOnUse">
			<stop  offset="0" style="stop-color:#F58220"/>
			<stop  offset="1" style="stop-color:#F26522"/>
		</radialGradient>
		<path class="st16" d="M881.9,51.7c-8.7-7.2-19.8-11.5-31.9-11.5c-27.6,0-50,22.4-50,50c0,27.6,22.4,50,50,50
			c12.1,0,23.3-4.3,31.9-11.5c3.2,6.8,10.1,11.5,18.1,11.5v-30v-40v-30C892,40.2,885.1,44.9,881.9,51.7z M850,120.2
			c-16.6,0-30-13.4-30-30s13.4-30,30-30s30,13.4,30,30S866.6,120.2,850,120.2z"/>
		<radialGradient id="SVGID_18_" cx="470.0274" cy="88.5905" r="467.9862" gradientUnits="userSpaceOnUse">
			<stop  offset="0" style="stop-color:#F58220"/>
			<stop  offset="1" style="stop-color:#F26522"/>
		</radialGradient>
		<path class="st17" d="M920,30.2v110c11,0,20-9,20-20v-110C929,10.2,920,19.1,920,30.2z"/>
	</g>
</g>
</svg>
