<?xml version="1.0" encoding="UTF-8"?>
<svg width="16px" height="16px" viewBox="0 0 16 16" version="1.1" xmlns="http://www.w3.org/2000/svg" xmlns:xlink="http://www.w3.org/1999/xlink">
    <title>Group 2</title>
    <g id="Symbols" stroke="none" stroke-width="1" fill="none" fill-rule="evenodd">
        <g id="Navigations/Utility-bar/Desktop/_Base" transform="translate(-1276.000000, -12.000000)">
            <g id="Utility-navigation-bar" transform="translate(90.000000, 9.000000)">
                <g id="Icon---User" transform="translate(1187.000000, 4.000000)">
                    <g id="Group-2" transform="translate(0.477273, 0.477273)">
                        <circle id="Oval" stroke="#FFFFFF" stroke-width="1.5" cx="6.52272727" cy="6.52272727" r="6.52272727"></circle>
                        <path d="M6.53429363,8.6620695 C5.13353009,8.6620695 3.99860992,7.3015215 3.99860992,5.62443465 C3.99860992,3.94752908 5.13353009,2.70454545 6.53429363,2.70454545 C7.93527477,2.70454545 9.07113773,3.94752908 9.07113773,5.62443465 C9.07113773,7.3015215 7.9352385,8.6620695 6.53429363,8.6620695 Z M2.07827147,11.2558827 C2.07827147,11.2558827 2.67116998,9.92985694 3.34609519,9.161446 C3.760689,8.69024577 4.25379199,8.79754769 4.57272425,8.95079475 C4.76916041,9.04507832 4.99127072,9.31980611 5.15358348,9.46540165 C5.37725308,9.66600804 5.77211988,9.89399295 6.4176721,9.90682999 L6.8137356,9.90682999 C7.45888895,9.89399295 7.8537557,9.66600804 8.077244,9.46540165 C8.23937545,9.31984238 8.45535734,9.03659279 8.65001665,8.93919065 C8.94273081,8.79265221 9.38825688,8.70250265 9.79200804,9.16148227 C10.4671508,9.92992948 11.0018474,11.2799975 11.0018474,11.2799975 C9.01883055,12.2683536 7.53156785,12.761192 6.5400594,12.7585234 C5.54855099,12.7558331 4.06128834,12.2549565 2.07827147,11.2558827 Z" id="Shape" fill="#FFFFFF" fill-rule="nonzero"></path>
                    </g>
                </g>
            </g>
        </g>
    </g>
</svg>